<mxfile host="app.diagrams.net" modified="2021-11-20T17:33:03.883Z" agent="5.0 (Windows NT 10.0; Win64; x64) AppleWebKit/537.36 (KHTML, like Gecko) Chrome/95.0.4638.69 Safari/537.36 OPR/81.0.4196.54" etag="BNbM5v3YI9SqEmiOgjAd" version="15.8.2" type="github">
  <diagram id="82qrgWwglgU680vS7R0n" name="Página-1">
    <mxGraphModel dx="862" dy="490" grid="1" gridSize="10" guides="1" tooltips="1" connect="1" arrows="1" fold="1" page="1" pageScale="1" pageWidth="827" pageHeight="1169" math="0" shadow="0">
      <root>
        <mxCell id="0" />
        <mxCell id="1" parent="0" />
        <mxCell id="MmG805pm8nki7uAnqe5K-1" value="Actor" style="shape=umlActor;verticalLabelPosition=bottom;verticalAlign=top;html=1;outlineConnect=0;" vertex="1" parent="1">
          <mxGeometry x="30" y="360" width="60" height="115" as="geometry" />
        </mxCell>
        <mxCell id="MmG805pm8nki7uAnqe5K-2" value="Fazer login" style="ellipse;whiteSpace=wrap;html=1;" vertex="1" parent="1">
          <mxGeometry x="170" y="377.5" width="120" height="80" as="geometry" />
        </mxCell>
        <mxCell id="MmG805pm8nki7uAnqe5K-3" value="Cadastrar Promoção" style="ellipse;whiteSpace=wrap;html=1;" vertex="1" parent="1">
          <mxGeometry x="294" y="150" width="120" height="80" as="geometry" />
        </mxCell>
        <mxCell id="MmG805pm8nki7uAnqe5K-5" value="Cadastrar Produtos" style="ellipse;whiteSpace=wrap;html=1;" vertex="1" parent="1">
          <mxGeometry x="590" y="297.5" width="120" height="80" as="geometry" />
        </mxCell>
        <mxCell id="MmG805pm8nki7uAnqe5K-6" value="Encaminhar promoção para clientes cadastrados" style="ellipse;whiteSpace=wrap;html=1;" vertex="1" parent="1">
          <mxGeometry x="534" y="60" width="120" height="80" as="geometry" />
        </mxCell>
        <mxCell id="MmG805pm8nki7uAnqe5K-8" value="Destinar Boas vindas&amp;nbsp;" style="ellipse;whiteSpace=wrap;html=1;" vertex="1" parent="1">
          <mxGeometry x="680" y="420" width="120" height="80" as="geometry" />
        </mxCell>
        <mxCell id="MmG805pm8nki7uAnqe5K-10" value="Cadastrar Cliente" style="ellipse;whiteSpace=wrap;html=1;" vertex="1" parent="1">
          <mxGeometry x="414" y="457.5" width="120" height="80" as="geometry" />
        </mxCell>
        <mxCell id="MmG805pm8nki7uAnqe5K-12" value="" style="endArrow=none;html=1;rounded=0;exitX=0.5;exitY=0.5;exitDx=0;exitDy=0;exitPerimeter=0;entryX=0;entryY=0.5;entryDx=0;entryDy=0;" edge="1" parent="1" source="MmG805pm8nki7uAnqe5K-1" target="MmG805pm8nki7uAnqe5K-2">
          <mxGeometry width="50" height="50" relative="1" as="geometry">
            <mxPoint x="110" y="417.5" as="sourcePoint" />
            <mxPoint x="200" y="395" as="targetPoint" />
            <Array as="points" />
          </mxGeometry>
        </mxCell>
        <mxCell id="MmG805pm8nki7uAnqe5K-13" value="" style="endArrow=block;dashed=1;endFill=0;endSize=12;html=1;rounded=0;exitX=0.417;exitY=1;exitDx=0;exitDy=0;exitPerimeter=0;entryX=0.5;entryY=0;entryDx=0;entryDy=0;" edge="1" parent="1" source="MmG805pm8nki7uAnqe5K-3" target="MmG805pm8nki7uAnqe5K-2">
          <mxGeometry width="160" relative="1" as="geometry">
            <mxPoint x="290" y="365" as="sourcePoint" />
            <mxPoint x="450" y="365" as="targetPoint" />
          </mxGeometry>
        </mxCell>
        <mxCell id="MmG805pm8nki7uAnqe5K-14" value="" style="endArrow=block;dashed=1;endFill=0;endSize=12;html=1;rounded=0;exitX=0.058;exitY=0.788;exitDx=0;exitDy=0;exitPerimeter=0;" edge="1" parent="1" source="MmG805pm8nki7uAnqe5K-6" target="MmG805pm8nki7uAnqe5K-3">
          <mxGeometry width="160" relative="1" as="geometry">
            <mxPoint x="480" y="305" as="sourcePoint" />
            <mxPoint x="640" y="305" as="targetPoint" />
          </mxGeometry>
        </mxCell>
        <mxCell id="MmG805pm8nki7uAnqe5K-16" value="" style="endArrow=block;dashed=1;endFill=0;endSize=12;html=1;rounded=0;exitX=0;exitY=0.5;exitDx=0;exitDy=0;entryX=1;entryY=0.5;entryDx=0;entryDy=0;" edge="1" parent="1" source="MmG805pm8nki7uAnqe5K-5" target="MmG805pm8nki7uAnqe5K-2">
          <mxGeometry width="160" relative="1" as="geometry">
            <mxPoint x="290" y="515" as="sourcePoint" />
            <mxPoint x="450" y="515" as="targetPoint" />
          </mxGeometry>
        </mxCell>
        <mxCell id="MmG805pm8nki7uAnqe5K-19" value="" style="endArrow=block;dashed=1;endFill=0;endSize=12;html=1;rounded=0;exitX=0;exitY=0;exitDx=0;exitDy=0;entryX=1;entryY=1;entryDx=0;entryDy=0;" edge="1" parent="1" source="MmG805pm8nki7uAnqe5K-10" target="MmG805pm8nki7uAnqe5K-2">
          <mxGeometry width="160" relative="1" as="geometry">
            <mxPoint x="190" y="565" as="sourcePoint" />
            <mxPoint x="350" y="565" as="targetPoint" />
          </mxGeometry>
        </mxCell>
        <mxCell id="MmG805pm8nki7uAnqe5K-20" value="" style="endArrow=block;dashed=1;endFill=0;endSize=12;html=1;rounded=0;exitX=0;exitY=0.5;exitDx=0;exitDy=0;entryX=1;entryY=0.388;entryDx=0;entryDy=0;entryPerimeter=0;" edge="1" parent="1" source="MmG805pm8nki7uAnqe5K-8" target="MmG805pm8nki7uAnqe5K-10">
          <mxGeometry width="160" relative="1" as="geometry">
            <mxPoint x="570" y="565" as="sourcePoint" />
            <mxPoint x="730" y="565" as="targetPoint" />
          </mxGeometry>
        </mxCell>
        <mxCell id="MmG805pm8nki7uAnqe5K-21" value="Cadastrar&lt;br&gt;eventualidade" style="ellipse;whiteSpace=wrap;html=1;" vertex="1" parent="1">
          <mxGeometry x="460" y="200" width="120" height="80" as="geometry" />
        </mxCell>
        <mxCell id="MmG805pm8nki7uAnqe5K-22" value="" style="endArrow=block;dashed=1;endFill=0;endSize=12;html=1;rounded=0;exitX=0;exitY=1;exitDx=0;exitDy=0;entryX=0.917;entryY=0.156;entryDx=0;entryDy=0;entryPerimeter=0;" edge="1" parent="1" source="MmG805pm8nki7uAnqe5K-21" target="MmG805pm8nki7uAnqe5K-2">
          <mxGeometry width="160" relative="1" as="geometry">
            <mxPoint x="140" y="300" as="sourcePoint" />
            <mxPoint x="-19.20806160734378" y="376.2578754765723" as="targetPoint" />
          </mxGeometry>
        </mxCell>
        <mxCell id="MmG805pm8nki7uAnqe5K-24" value="Encaminhar eventualidade para a administração&amp;nbsp;" style="ellipse;whiteSpace=wrap;html=1;" vertex="1" parent="1">
          <mxGeometry x="680" y="130" width="120" height="80" as="geometry" />
        </mxCell>
        <mxCell id="MmG805pm8nki7uAnqe5K-25" value="" style="endArrow=block;dashed=1;endFill=0;endSize=12;html=1;rounded=0;entryX=0.992;entryY=0.388;entryDx=0;entryDy=0;entryPerimeter=0;" edge="1" parent="1" target="MmG805pm8nki7uAnqe5K-21">
          <mxGeometry width="160" relative="1" as="geometry">
            <mxPoint x="700" y="200" as="sourcePoint" />
            <mxPoint x="150.79193839265622" y="206.25787547657228" as="targetPoint" />
          </mxGeometry>
        </mxCell>
      </root>
    </mxGraphModel>
  </diagram>
</mxfile>
